#!OML:ASF F:\VICON\USERDATA\Patient Classification 1\PLAYGROUND\JustinFriday\JustinFriday.ASF
:FULLY-SPECIFIED
:DEGREES
3124
root 41.6515 18.9773 -7.67421 169.531 -72.3719 -156.568
lowerback 20.5552 1.61413 0.62893
upperback 6.81449 1.81395 3.62899
thorax -4.19602 0.603335 3.11537
lowerneck -8.54531 3.74867 -2.09432
upperneck -16.0572 4.49879 0.697558
head -3.85304 1.98506 0.577538
rclavicle -1.17283e-014 4.90004e-014
rhumerus 40.3579 31.7718 -57.0697
rradius 49.0162
rwrist 4.82629
rhand -29.5412 -13.0878
rfingers 7.12502
rthumb -2.87436 -403.048
lclavicle -1.17283e-014 4.90004e-014
lhumerus 39.6443 -7.3562 64.6305
lradius 22.6033
lwrist -22.8325
lhand -29.4908 -17.1447
lfingers 7.12502
lthumb -2.82567 12.8163
rfemur -12.7636 -8.80646 27.9973
rtibia 6.4178
rfoot -0.427423 -7.12412
rtoes 14.3707
lfemur -44.3749 3.17069 -6.72798
ltibia 86.8588
lfoot -17.8791 -17.0489
ltoes 14.0029
3125
root 41.6437 19.0246 -7.75304 169.263 -72.8515 -156.214
lowerback 20.9305 1.5246 0.358438
upperback 6.90567 1.63984 3.73893
thorax -4.29249 0.508936 3.42985
lowerneck -8.73022 3.40598 -2.7982
upperneck -15.9512 4.10915 1.03067
head -3.80502 1.82075 0.815641
rclavicle 3.66758e-014 2.31584e-014
rhumerus 42.0436 31.7925 -56.4664
rradius 48.1199
rwrist 5.29901
rhand -26.7614 -10.2285
rfingers 7.12502
rthumb -0.189605 -400.208
lclavicle 3.66758e-014 2.31584e-014
lhumerus 39.8961 -7.08839 64.1752
lradius 22.8763
lwrist -22.8965
lhand -28.5101 -17.5578
lfingers 7.12502
lthumb -1.87861 12.4137
rfemur -12.1607 -9.06408 28.2301
rtibia 5.33552
rfoot 0.131426 -7.33094
rtoes 14.7921
lfemur -45.6252 3.96887 -6.84474
ltibia 88.4912
lfoot -17.6509 -18.4403
ltoes 16.261
3126
root 41.6376 19.0377 -7.82175 169.811 -73.4557 -156.551
lowerback 21.1781 1.2791 -0.203352
upperback 6.85403 1.22784 3.95254
thorax -4.46737 0.305721 4.08597
lowerneck -8.00264 3.68255 -4.11959
upperneck -16.7981 4.52984 1.21256
head -4.31194 2.09223 1.08783
rclavicle -4.11484e-014 1.03368e-014
rhumerus 43.9246 32.5779 -55.3499
rradius 47.3103
rwrist 5.91364
rhand -23.8641 -7.58171
rfingers 7.12502
rthumb 2.60857 -397.546
lclavicle -4.11484e-014 1.03368e-014
lhumerus 39.6172 -5.16232 65.277
lradius 23.1123
lwrist -24.9358
lhand -27.0921 -18.2963
lfingers 7.12502
lthumb -0.509078 11.6829
rfemur -11.8453 -9.39944 28.2074
rtibia 4.37877
rfoot -0.0865533 -7.88019
rtoes 18.921
lfemur -47.3373 5.19131 -7.5295
ltibia 90.1736
lfoot -17.6992 -18.9885
ltoes 14.9307
3127
root 41.6364 19.0323 -7.88984 168.752 -73.9909 -155.208
lowerback 21.4092 1.58569 0.614027
upperback 7.05834 1.74791 3.47516
thorax -4.36271 0.558908 2.97056
lowerneck -9.72811 2.88531 -3.20227
upperneck -15.4971 3.50642 1.56825
head -3.4757 1.52907 1.0803
rclavicle 4.74101e-014 -4.30369e-014
rhumerus 44.3595 30.6942 -55.4701
rradius 46.4812
rwrist 6.73591
rhand -23.3258 -6.89764
rfingers 7.12502
rthumb 3.12843 -396.854
lclavicle 4.74101e-014 -4.30369e-014
lhumerus 41.4312 -6.33815 64.6463
lradius 23.267
lwrist -25.7334
lhand -25.5738 -19.7359
lfingers 7.12502
lthumb 0.957407 10.2417
rfemur -11.1283 -9.75268 28.6938
rtibia 2.51993
rfoot 0.597556 -8.35684
rtoes 18.8805
lfemur -49.0144 5.62163 -7.73407
ltibia 91.7492
lfoot -18.4745 -18.6457
ltoes 13.1209
3128
root 41.6331 19.0354 -7.95993 167.666 -74.3651 -153.948
lowerback 21.747 1.70648 0.97548
upperback 7.19646 1.95523 3.31459
thorax -4.37673 0.655121 2.53737
lowerneck -10.0592 2.51885 -3.60527
upperneck -15.6459 3.10145 2.25768
head -3.48644 1.32329 1.38553
rclavicle 1.85367e-014 1.53064e-014
rhumerus 45.2887 29.8321 -55.1344
rradius 45.6652
rwrist 7.1432
rhand -23.9355 -7.21507
rfingers 7.12502
rthumb 2.5396 -397.18
lclavicle 1.85367e-014 1.53064e-014
lhumerus 42.5184 -7.05622 63.5756
lradius 23.4439
lwrist -25.6702
lhand -24.0331 -20.7044
lfingers 7.12502
lthumb 2.44539 9.26137
rfemur -9.95493 -9.97087 29.1501
rtibia 7.31528e-014
rfoot 1.81182 -8.69889
rtoes 17.534
lfemur -50.4485 6.71159 -7.85826
ltibia 93.2019
lfoot -19.0669 -19.128
ltoes 13.4202
